999
DXF created by ezdxf
0
SECTION
2
HEADER
9
$ACADVER
1
AC1024
9
$INSBASE
10
0.0
20
0.0
30
0.0
9
$EXTMIN
10
0.0
20
0.0
30
0.0
9
$EXTMAX
10
20.0
20
20.0
30
0.0
0
ENDSEC
0
SECTION
2
TABLES
0
TABLE
2
LAYER
0
LAYER
2
0
70
0
62
7
6
CONTINUOUS
0
ENDTAB
0
ENDSEC
0
SECTION
2
ENTITIES
0
SPLINE
5
1
330
1F
100
AcDbEntity
8
0
100
AcDbSpline
70
8
71
3
72
8
73
4
74
0
42
0.0000001
43
0.0000001
40
0.0
40
0.0
40
0.0
40
0.0
40
10.0
40
10.0
40
10.0
40
10.0
40
20.0
40
20.0
40
20.0
40
20.0
10
0.0
20
0.0
30
0.0
10
5.0
20
10.0
30
0.0
10
10.0
20
0.0
30
0.0
10
15.0
20
10.0
30
0.0
10
20.0
20
0.0
30
0.0
10
20.0
20
20.0
30
0.0
10
15.0
20
10.0
30
0.0
10
10.0
20
20.0
30
0.0
10
5.0
20
10.0
30
0.0
10
0.0
20
20.0
30
0.0
0
SPLINE
5
2
330
1F
100
AcDbEntity
8
0
100
AcDbSpline
70
8
71
3
72
8
73
4
74
0
42
0.0000001
43
0.0000001
40
0.0
40
0.0
40
0.0
40
0.0
40
5.0
40
5.0
40
5.0
40
5.0
40
10.0
40
10.0
40
10.0
40
10.0
10
2.5
20
2.5
30
0.0
10
3.5
20
4.5
30
0.0
10
5.0
20
2.0
30
0.0
10
6.5
20
4.5
30
0.0
10
7.5
20
2.5
30
0.0
10
5.0
20
5.0
30
0.0
10
2.5
20
7.5
30
0.0
10
3.5
20
5.5
30
0.0
10
5.0
20
8.0
30
0.0
10
6.5
20
5.5
30
0.0
10
7.5
20
7.5
30
0.0
0
SPLINE
5
3
330
1F
100
AcDbEntity
8
0
100
AcDbSpline
70
8
71
3
72
8
73
4
74
0
42
0.0000001
43
0.0000001
40
0.0
40
0.0
40
0.0
40
0.0
40
5.0
40
5.0
40
5.0
40
5.0
40
10.0
40
10.0
40
10.0
40
10.0
10
12.5
20
12.5
30
0.0
10
13.5
20
14.5
30
0.0
10
15.0
20
12.0
30
0.0
10
16.5
20
14.5
30
0.0
10
17.5
20
12.5
30
0.0
10
15.0
20
15.0
30
0.0
10
12.5
20
17.5
30
0.0
10
13.5
20
15.5
30
0.0
10
15.0
20
18.0
30
0.0
10
16.5
20
15.5
30
0.0
10
17.5
20
17.5
30
0.0
0
ENDSEC
0
EOF