  0
SECTION
  2
HEADER
  9
$ACADVER
  1
AC1014
  9
$HANDSEED
  5
FFFF
  9
$MEASUREMENT
 70
     1
  9
$INSUNITS
 70
     1
  0
ENDSEC
  0
SECTION
  2
TABLES
  0
TABLE
  2
VPORT
  5
8
330
0
100
AcDbSymbolTable
 70
     4
  0
VPORT
  5
2E
330
8
100
AcDbSymbolTableRecord
100
AcDbViewportTableRecord
  2
*ACTIVE
 70
     0
 10
0.0
 20
0.0
 11
1.0
 21
1.0
 12
210.0
 22
148.5
 13
0.0
 23
0.0
 14
10.0
 24
10.0
 15
10.0
 25
10.0
 16
0.0
 26
0.0
 36
1.0
 17
0.0
 27
0.0
 37
0.0
 40
341.0
 41
1.24
 42
50.0
 43
0.0
 44
0.0
 50
0.0
 51
0.0
 71
     0
 72
   100
 73
     1
 74
     3
 75
     0
 76
     0
 77
     0
 78
     0
  0
ENDTAB
  0
TABLE
  2
LTYPE
  5
5
330
0
100
AcDbSymbolTable
 70
     1
  0
LTYPE
  5
14
330
5
100
AcDbSymbolTableRecord
100
AcDbLinetypeTableRecord
  2
BYBLOCK
 70
     0
  3

 72
    65
 73
     0
 40
0.0
  0
LTYPE
  5
15
330
5
100
AcDbSymbolTableRecord
100
AcDbLinetypeTableRecord
  2
BYLAYER
 70
     0
  3

 72
    65
 73
     0
 40
0.0
  0
LTYPE
  5
16
330
5
100
AcDbSymbolTableRecord
100
AcDbLinetypeTableRecord
  2
CONTINUOUS
 70
     0
  3
Solid line
 72
    65
 73
     0
 40
0.0
  0
ENDTAB
  0
TABLE
  2
LAYER
  5
2
100
AcDbSymbolTable
 70
1
  0
LAYER
  5
50
100
AcDbSymbolTableRecord
100
AcDbLayerTableRecord
  2
0
 70
0
  6
CONTINUOUS
  0
ENDTAB
  0
TABLE
  2
STYLE
  5
3
330
0
100
AcDbSymbolTable
 70
     1
  0
STYLE
  5
11
330
3
100
AcDbSymbolTableRecord
100
AcDbTextStyleTableRecord
  2
STANDARD
 70
     0
 40
0.0
 41
1.0
 50
0.0
 71
     0
 42
2.5
  3
txt
  4

  0
ENDTAB
  0
TABLE
  2
VIEW
  5
6
330
0
100
AcDbSymbolTable
 70
     0
  0
ENDTAB
  0
TABLE
  2
UCS
  5
7
330
0
100
AcDbSymbolTable
 70
     0
  0
ENDTAB
  0
TABLE
  2
APPID
  5
9
330
0
100
AcDbSymbolTable
 70
     2
  0
APPID
  5
12
330
9
100
AcDbSymbolTableRecord
100
AcDbRegAppTableRecord
  2
ACAD
 70
     0
  0
ENDTAB
  0
TABLE
  2
DIMSTYLE
  5
A
330
0
100
AcDbSymbolTable
 70
     1
  0
DIMSTYLE
105
27
330
A
100
AcDbSymbolTableRecord
100
AcDbDimStyleTableRecord
  2
ISO-25
 70
     0
  3

  4

  5

  6

  7

 40
1.0
 41
2.5
 42
0.625
 43
3.75
 44
1.25
 45
0.0
 46
0.0
 47
0.0
 48
0.0
140
2.5
141
2.5
142
0.0
143
0.03937007874016
144
1.0
145
0.0
146
1.0
147
0.625
 71
     0
 72
     0
 73
     0
 74
     0
 75
     0
 76
     0
 77
     1
 78
     8
170
     0
171
     3
172
     1
173
     0
174
     0
175
     0
176
     0
177
     0
178
     0
270
     2
271
     2
272
     2
273
     2
274
     3
340
11
275
     0
280
     0
281
     0
282
     0
283
     0
284
     8
285
     0
286
     0
287
     3
288
     0
  0
ENDTAB
  0
TABLE
  2
BLOCK_RECORD
  5
1
330
0
100
AcDbSymbolTable
 70
     1
  0
BLOCK_RECORD
  5
1F
330
1
100
AcDbSymbolTableRecord
100
AcDbBlockTableRecord
  2
*MODEL_SPACE
  0
BLOCK_RECORD
  5
1B
330
1
100
AcDbSymbolTableRecord
100
AcDbBlockTableRecord
  2
*PAPER_SPACE
  0
ENDTAB
  0
ENDSEC
  0
SECTION
  2
BLOCKS
  0
BLOCK
  5
20
330
1F
100
AcDbEntity
  8
0
100
AcDbBlockBegin
  2
*MODEL_SPACE
 70
     0
 10
0.0
 20
0.0
 30
0.0
  3
*MODEL_SPACE
  1

  0
ENDBLK
  5
21
330
1F
100
AcDbEntity
  8
0
100
AcDbBlockEnd
  0
BLOCK
  5
1C
330
1B
100
AcDbEntity
 67
     1
  8
0
100
AcDbBlockBegin
  2
*PAPER_SPACE
  1

  0
ENDBLK
  5
1D
330
1B
100
AcDbEntity
 67
     1
  8
0
100
AcDbBlockEnd
  0
ENDSEC
  0
SECTION
  2
ENTITIES
  0
SPLINE
  5
100
100
AcDbEntity
  8
0
 62
7
100
AcDbSpline
 70
8
 71
3
 72
8
 73
4
 74
0
 40
0
 40
0
 40
0
 40
0
 40
1
 40
1
 40
1
 40
1
 10
36.993136
 20
17.830599
 30
0.0
 10
36.531886
 20
17.830599
 30
0.0
 10
36.178831
 20
17.961571
 30
0.0
 10
35.933969
 20
18.223516
 30
0.0
  0
SPLINE
  5
101
100
AcDbEntity
  8
0
 62
7
100
AcDbSpline
 70
8
 71
3
 72
8
 73
4
 74
0
 40
0
 40
0
 40
0
 40
0
 40
1
 40
1
 40
1
 40
1
 10
35.933969
 20
18.223516
 30
0.0
 10
35.689108
 20
18.485460
 30
0.0
 10
35.566678
 20
18.855599
 30
0.0
 10
35.566678
 20
19.333932
 30
0.0
  0
LWPOLYLINE
  5
102
100
AcDbEntity
  8
0
 62
7
100
AcDbPolyline
 90
10
 70
1
 10
1.964589
 20
20.493899
 30
0.0
 10
0.828547
 20
23.927649
 30
0.0
 10
1.827922
 20
23.927649
 30
0.0
 10
2.468547
 20
21.732441
 30
0.0
 10
2.485631
 20
21.732441
 30
0.0
 10
3.126256
 20
23.927649
 30
0.0
 10
4.040214
 20
23.927649
 30
0.0
 10
2.904172
 20
20.493899
 30
0.0
 10
2.904172
 20
17.948482
 30
0.0
 10
1.964589
 20
17.948482
 30
0.0
  0
SPLINE
  5
103
100
AcDbEntity
  8
0
 62
7
100
AcDbSpline
 70
8
 71
3
 72
8
 73
4
 74
0
 40
0
 40
0
 40
0
 40
0
 40
1
 40
1
 40
1
 40
1
 10
35.566678
 20
22.477266
 30
0.0
 10
35.566678
 20
22.955599
 30
0.0
 10
35.689108
 20
23.325738
 30
0.0
 10
35.933969
 20
23.587682
 30
0.0
  0
SPLINE
  5
104
100
AcDbEntity
  8
0
 62
7
100
AcDbSpline
 70
8
 71
3
 72
8
 73
4
 74
0
 40
0
 40
0
 40
0
 40
0
 40
1
 40
1
 40
1
 40
1
 10
35.933969
 20
23.587682
 30
0.0
 10
36.178831
 20
23.849626
 30
0.0
 10
36.531886
 20
23.980599
 30
0.0
 10
36.993136
 20
23.980599
 30
0.0
  0
SPLINE
  5
105
100
AcDbEntity
  8
0
 62
7
100
AcDbSpline
 70
8
 71
3
 72
8
 73
4
 74
0
 40
0
 40
0
 40
0
 40
0
 40
1
 40
1
 40
1
 40
1
 10
36.993136
 20
23.980599
 30
0.0
 10
37.454386
 20
23.980599
 30
0.0
 10
37.807442
 20
23.849626
 30
0.0
 10
38.052303
 20
23.587682
 30
0.0
  0
SPLINE
  5
106
100
AcDbEntity
  8
0
 62
7
100
AcDbSpline
 70
8
 71
3
 72
8
 73
4
 74
0
 40
0
 40
0
 40
0
 40
0
 40
1
 40
1
 40
1
 40
1
 10
38.052303
 20
23.587682
 30
0.0
 10
38.297164
 20
23.325738
 30
0.0
 10
38.419594
 20
22.955599
 30
0.0
 10
38.419594
 20
22.477266
 30
0.0
  0
LWPOLYLINE
  5
107
100
AcDbEntity
  8
0
 62
7
100
AcDbPolyline
 90
2
 70
0
 10
35.566678
 20
19.333932
 30
0.0
 10
35.566678
 20
22.477266
 30
0.0
  0
SPLINE
  5
108
100
AcDbEntity
  8
0
 62
7
100
AcDbSpline
 70
8
 71
3
 72
8
 73
4
 74
0
 40
0
 40
0
 40
0
 40
0
 40
1
 40
1
 40
1
 40
1
 10
38.419594
 20
19.333932
 30
0.0
 10
38.419594
 20
18.855599
 30
0.0
 10
38.297164
 20
18.485460
 30
0.0
 10
38.052303
 20
18.223516
 30
0.0
  0
SPLINE
  5
109
100
AcDbEntity
  8
0
 62
7
100
AcDbSpline
 70
8
 71
3
 72
8
 73
4
 74
0
 40
0
 40
0
 40
0
 40
0
 40
1
 40
1
 40
1
 40
1
 10
38.052303
 20
18.223516
 30
0.0
 10
37.807442
 20
17.961571
 30
0.0
 10
37.454386
 20
17.830599
 30
0.0
 10
36.993136
 20
17.830599
 30
0.0
  0
LWPOLYLINE
  5
10a
100
AcDbEntity
  8
0
 62
7
100
AcDbPolyline
 90
2
 70
0
 10
38.419594
 20
22.477266
 30
0.0
 10
38.419594
 20
19.333932
 30
0.0
  0
SPLINE
  5
10b
100
AcDbEntity
  8
0
 62
7
100
AcDbSpline
 70
8
 71
3
 72
8
 73
4
 74
0
 40
0
 40
0
 40
0
 40
0
 40
1
 40
1
 40
1
 40
1
 10
36.993136
 20
18.684766
 30
0.0
 10
37.317719
 20
18.684766
 30
0.0
 10
37.480011
 20
18.881224
 30
0.0
 10
37.480011
 20
19.274141
 30
0.0
  0
LWPOLYLINE
  5
10c
100
AcDbEntity
  8
0
 62
7
100
AcDbPolyline
 90
1
 70
1
 10
36.993136
 20
17.830599
 30
0.0
  0
SPLINE
  5
10d
100
AcDbEntity
  8
0
 62
7
100
AcDbSpline
 70
8
 71
3
 72
8
 73
4
 74
0
 40
0
 40
0
 40
0
 40
0
 40
1
 40
1
 40
1
 40
1
 10
37.480011
 20
22.537057
 30
0.0
 10
37.480011
 20
22.929974
 30
0.0
 10
37.317719
 20
23.126432
 30
0.0
 10
36.993136
 20
23.126432
 30
0.0
  0
SPLINE
  5
10e
100
AcDbEntity
  8
0
 62
7
100
AcDbSpline
 70
8
 71
3
 72
8
 73
4
 74
0
 40
0
 40
0
 40
0
 40
0
 40
1
 40
1
 40
1
 40
1
 10
36.993136
 20
23.126432
 30
0.0
 10
36.668553
 20
23.126432
 30
0.0
 10
36.506261
 20
22.929974
 30
0.0
 10
36.506261
 20
22.537057
 30
0.0
  0
LWPOLYLINE
  5
10f
100
AcDbEntity
  8
0
 62
7
100
AcDbPolyline
 90
2
 70
0
 10
37.480011
 20
19.274141
 30
0.0
 10
37.480011
 20
22.537057
 30
0.0
  0
SPLINE
  5
110
100
AcDbEntity
  8
0
 62
7
100
AcDbSpline
 70
8
 71
3
 72
8
 73
4
 74
0
 40
0
 40
0
 40
0
 40
0
 40
1
 40
1
 40
1
 40
1
 10
36.506261
 20
19.274141
 30
0.0
 10
36.506261
 20
18.881224
 30
0.0
 10
36.668553
 20
18.684766
 30
0.0
 10
36.993136
 20
18.684766
 30
0.0
  0
LWPOLYLINE
  5
111
100
AcDbEntity
  8
0
 62
7
100
AcDbPolyline
 90
2
 70
0
 10
36.506261
 20
22.537057
 30
0.0
 10
36.506261
 20
19.274141
 30
0.0
  0
SPLINE
  5
112
100
AcDbEntity
  8
0
 62
7
100
AcDbSpline
 70
8
 71
3
 72
8
 73
4
 74
0
 40
0
 40
0
 40
0
 40
0
 40
1
 40
1
 40
1
 40
1
 10
19.619711
 20
16.103286
 30
0.0
 10
19.619711
 20
16.558841
 30
0.0
 10
19.747836
 20
16.906203
 30
0.0
 10
20.004086
 20
17.145369
 30
0.0
  0
SPLINE
  5
113
100
AcDbEntity
  8
0
 62
7
100
AcDbSpline
 70
8
 71
3
 72
8
 73
4
 74
0
 40
0
 40
0
 40
0
 40
0
 40
1
 40
1
 40
1
 40
1
 10
20.004086
 20
17.145369
 30
0.0
 10
20.266031
 20
17.384536
 30
0.0
 10
20.639017
 20
17.504119
 30
0.0
 10
21.123044
 20
17.504119
 30
0.0
  0
LWPOLYLINE
  5
114
100
AcDbEntity
  8
0
 62
7
100
AcDbPolyline
 90
1
 70
1
 10
36.993136
 20
18.684766
 30
0.0
  0
SPLINE
  5
115
100
AcDbEntity
  8
0
 62
7
100
AcDbSpline
 70
8
 71
3
 72
8
 73
4
 74
0
 40
0
 40
0
 40
0
 40
0
 40
1
 40
1
 40
1
 40
1
 10
21.054711
 20
16.564536
 30
0.0
 10
20.849711
 20
16.564536
 30
0.0
 10
20.701656
 20
16.524675
 30
0.0
 10
20.610544
 20
16.444952
 30
0.0
  0
SPLINE
  5
116
100
AcDbEntity
  8
0
 62
7
100
AcDbSpline
 70
8
 71
3
 72
8
 73
4
 74
0
 40
0
 40
0
 40
0
 40
0
 40
1
 40
1
 40
1
 40
1
 10
20.610544
 20
16.444952
 30
0.0
 10
20.519433
 20
16.359536
 30
0.0
 10
20.473878
 20
16.239953
 30
0.0
 10
20.473878
 20
16.086202
 30
0.0
  0
SPLINE
  5
117
100
AcDbEntity
  8
0
 62
7
100
AcDbSpline
 70
8
 71
3
 72
8
 73
4
 74
0
 40
0
 40
0
 40
0
 40
0
 40
1
 40
1
 40
1
 40
1
 10
20.473878
 20
16.086202
 30
0.0
 10
20.473878
 20
15.932452
 30
0.0
 10
20.519433
 20
15.815716
 30
0.0
 10
20.610544
 20
15.735994
 30
0.0
  0
SPLINE
  5
118
100
AcDbEntity
  8
0
 62
7
100
AcDbSpline
 70
8
 71
3
 72
8
 73
4
 74
0
 40
0
 40
0
 40
0
 40
0
 40
1
 40
1
 40
1
 40
1
 10
20.610544
 20
15.735994
 30
0.0
 10
20.701656
 20
15.650577
 30
0.0
 10
20.849711
 20
15.607869
 30
0.0
 10
21.054711
 20
15.607869
 30
0.0
  0
LWPOLYLINE
  5
119
100
AcDbEntity
  8
0
 62
7
100
AcDbPolyline
 90
4
 70
0
 10
21.123044
 20
17.504119
 30
0.0
 10
25.684294
 20
17.504119
 30
0.0
 10
25.684294
 20
16.564536
 30
0.0
 10
21.054711
 20
16.564536
 30
0.0
  0
SPLINE
  5
11a
100
AcDbEntity
  8
0
 62
7
100
AcDbSpline
 70
8
 71
3
 72
8
 73
4
 74
0
 40
0
 40
0
 40
0
 40
0
 40
1
 40
1
 40
1
 40
1
 10
21.123044
 20
14.702452
 30
0.0
 10
20.639017
 20
14.702452
 30
0.0
 10
20.266031
 20
14.822036
 30
0.0
 10
20.004086
 20
15.061203
 30
0.0
  0
SPLINE
  5
11b
100
AcDbEntity
  8
0
 62
7
100
AcDbSpline
 70
8
 71
3
 72
8
 73
4
 74
0
 40
0
 40
0
 40
0
 40
0
 40
1
 40
1
 40
1
 40
1
 10
20.004086
 20
15.061203
 30
0.0
 10
19.747836
 20
15.300369
 30
0.0
 10
19.619711
 20
15.647730
 30
0.0
 10
19.619711
 20
16.103286
 30
0.0
  0
LWPOLYLINE
  5
11c
100
AcDbEntity
  8
0
 62
7
100
AcDbPolyline
 90
4
 70
0
 10
21.054711
 20
15.607869
 30
0.0
 10
25.684294
 20
15.607869
 30
0.0
 10
25.684294
 20
14.702452
 30
0.0
 10
21.123044
 20
14.702452
 30
0.0
  0
SPLINE
  5
11d
100
AcDbEntity
  8
0
 62
7
100
AcDbSpline
 70
8
 71
3
 72
8
 73
4
 74
0
 40
0
 40
0
 40
0
 40
0
 40
1
 40
1
 40
1
 40
1
 10
12.924805
 20
16.068537
 30
0.0
 10
12.924805
 20
15.618676
 30
0.0
 10
12.796680
 20
15.274162
 30
0.0
 10
12.540431
 20
15.034995
 30
0.0
  0
SPLINE
  5
11e
100
AcDbEntity
  8
0
 62
7
100
AcDbSpline
 70
8
 71
3
 72
8
 73
4
 74
0
 40
0
 40
0
 40
0
 40
0
 40
1
 40
1
 40
1
 40
1
 10
12.540431
 20
15.034995
 30
0.0
 10
12.284180
 20
14.801523
 30
0.0
 10
11.922583
 20
14.684787
 30
0.0
 10
11.455638
 20
14.684787
 30
0.0
  0
LWPOLYLINE
  5
11f
100
AcDbEntity
  8
0
 62
7
100
AcDbPolyline
 90
1
 70
1
 10
19.619711
 20
16.103286
 30
0.0
  0
SPLINE
  5
120
100
AcDbEntity
  8
0
 62
7
100
AcDbSpline
 70
8
 71
3
 72
8
 73
4
 74
0
 40
0
 40
0
 40
0
 40
0
 40
1
 40
1
 40
1
 40
1
 10
8.243972
 20
14.684787
 30
0.0
 10
7.777027
 20
14.684787
 30
0.0
 10
7.415430
 20
14.801523
 30
0.0
 10
7.159180
 20
15.034995
 30
0.0
  0
SPLINE
  5
121
100
AcDbEntity
  8
0
 62
7
100
AcDbSpline
 70
8
 71
3
 72
8
 73
4
 74
0
 40
0
 40
0
 40
0
 40
0
 40
1
 40
1
 40
1
 40
1
 10
7.159180
 20
15.034995
 30
0.0
 10
6.902931
 20
15.274162
 30
0.0
 10
6.774806
 20
15.618676
 30
0.0
 10
6.774806
 20
16.068537
 30
0.0
  0
SPLINE
  5
122
100
AcDbEntity
  8
0
 62
7
100
AcDbSpline
 70
8
 71
3
 72
8
 73
4
 74
0
 40
0
 40
0
 40
0
 40
0
 40
1
 40
1
 40
1
 40
1
 10
6.774806
 20
16.068537
 30
0.0
 10
6.774806
 20
16.518399
 30
0.0
 10
6.902931
 20
16.860066
 30
0.0
 10
7.159180
 20
17.093538
 30
0.0
  0
SPLINE
  5
123
100
AcDbEntity
  8
0
 62
7
100
AcDbSpline
 70
8
 71
3
 72
8
 73
4
 74
0
 40
0
 40
0
 40
0
 40
0
 40
1
 40
1
 40
1
 40
1
 10
7.159180
 20
17.093538
 30
0.0
 10
7.415430
 20
17.332705
 30
0.0
 10
7.777027
 20
17.452288
 30
0.0
 10
8.243972
 20
17.452288
 30
0.0
  0
LWPOLYLINE
  5
124
100
AcDbEntity
  8
0
 62
7
100
AcDbPolyline
 90
2
 70
0
 10
11.455638
 20
14.684787
 30
0.0
 10
8.243972
 20
14.684787
 30
0.0
  0
SPLINE
  5
125
100
AcDbEntity
  8
0
 62
7
100
AcDbSpline
 70
8
 71
3
 72
8
 73
4
 74
0
 40
0
 40
0
 40
0
 40
0
 40
1
 40
1
 40
1
 40
1
 10
8.184180
 20
16.563953
 30
0.0
 10
7.814042
 20
16.563953
 30
0.0
 10
7.628973
 20
16.407357
 30
0.0
 10
7.628973
 20
16.094163
 30
0.0
  0
SPLINE
  5
126
100
AcDbEntity
  8
0
 62
7
100
AcDbSpline
 70
8
 71
3
 72
8
 73
4
 74
0
 40
0
 40
0
 40
0
 40
0
 40
1
 40
1
 40
1
 40
1
 10
7.628973
 20
16.094163
 30
0.0
 10
7.628973
 20
15.780969
 30
0.0
 10
7.814042
 20
15.624372
 30
0.0
 10
8.184180
 20
15.624372
 30
0.0
  0
LWPOLYLINE
  5
127
100
AcDbEntity
  8
0
 62
7
100
AcDbPolyline
 90
4
 70
0
 10
8.243972
 20
17.452288
 30
0.0
 10
8.876055
 20
17.452288
 30
0.0
 10
8.876055
 20
16.563953
 30
0.0
 10
8.184180
 20
16.563953
 30
0.0
  0
SPLINE
  5
128
100
AcDbEntity
  8
0
 62
7
100
AcDbSpline
 70
8
 71
3
 72
8
 73
4
 74
0
 40
0
 40
0
 40
0
 40
0
 40
1
 40
1
 40
1
 40
1
 10
11.523972
 20
15.624372
 30
0.0
 10
11.888416
 20
15.624372
 30
0.0
 10
12.070638
 20
15.780969
 30
0.0
 10
12.070638
 20
16.094163
 30
0.0
  0
SPLINE
  5
129
100
AcDbEntity
  8
0
 62
7
100
AcDbSpline
 70
8
 71
3
 72
8
 73
4
 74
0
 40
0
 40
0
 40
0
 40
0
 40
1
 40
1
 40
1
 40
1
 10
12.070638
 20
16.094163
 30
0.0
 10
12.070638
 20
16.407357
 30
0.0
 10
11.888416
 20
16.563953
 30
0.0
 10
11.523972
 20
16.563953
 30
0.0
  0
LWPOLYLINE
  5
12a
100
AcDbEntity
  8
0
 62
7
100
AcDbPolyline
 90
2
 70
0
 10
8.184180
 20
15.624372
 30
0.0
 10
11.523972
 20
15.624372
 30
0.0
  0
SPLINE
  5
12b
100
AcDbEntity
  8
0
 62
7
100
AcDbSpline
 70
8
 71
3
 72
8
 73
4
 74
0
 40
0
 40
0
 40
0
 40
0
 40
1
 40
1
 40
1
 40
1
 10
11.455638
 20
17.452288
 30
0.0
 10
11.922583
 20
17.452288
 30
0.0
 10
12.284180
 20
17.332705
 30
0.0
 10
12.540430
 20
17.093538
 30
0.0
  0
SPLINE
  5
12c
100
AcDbEntity
  8
0
 62
7
100
AcDbSpline
 70
8
 71
3
 72
8
 73
4
 74
0
 40
0
 40
0
 40
0
 40
0
 40
1
 40
1
 40
1
 40
1
 10
12.540430
 20
17.093538
 30
0.0
 10
12.796680
 20
16.860066
 30
0.0
 10
12.924805
 20
16.518399
 30
0.0
 10
12.924805
 20
16.068537
 30
0.0
  0
LWPOLYLINE
  5
12d
100
AcDbEntity
  8
0
 62
7
100
AcDbPolyline
 90
4
 70
0
 10
11.523972
 20
16.563953
 30
0.0
 10
10.610013
 20
16.563953
 30
0.0
 10
10.610013
 20
17.452288
 30
0.0
 10
11.455638
 20
17.452288
 30
0.0
  0
LWPOLYLINE
  5
12e
100
AcDbEntity
  8
0
 62
7
100
AcDbPolyline
 90
1
 70
1
 10
12.924805
 20
16.068537
 30
0.0
  0
LWPOLYLINE
  5
12f
100
AcDbEntity
  8
0
 62
7
100
AcDbPolyline
 90
9
 70
1
 10
8.843057
 20
17.966764
 30
0.0
 10
7.570349
 20
17.966764
 30
0.0
 10
6.596599
 20
23.945930
 30
0.0
 10
7.536182
 20
23.945930
 30
0.0
 10
7.707015
 20
22.758639
 30
0.0
 10
7.707015
 20
22.775722
 30
0.0
 10
8.774724
 20
22.775722
 30
0.0
 10
8.945557
 20
23.945930
 30
0.0
 10
9.816807
 20
23.945930
 30
0.0
  0
LWPOLYLINE
  5
130
100
AcDbEntity
  8
0
 62
7
100
AcDbPolyline
 90
4
 70
1
 10
7.818057
 20
21.964264
 30
0.0
 10
8.236599
 20
19.008847
 30
0.0
 10
8.253682
 20
19.008847
 30
0.0
 10
8.663682
 20
21.964264
 30
0.0
  0
LWPOLYLINE
  5
131
100
AcDbEntity
  8
0
 62
7
100
AcDbPolyline
 90
12
 70
1
 10
15.871240
 20
23.977873
 30
0.0
 10
17.049990
 20
23.977873
 30
0.0
 10
17.963949
 20
20.398914
 30
0.0
 10
17.981032
 20
20.398914
 30
0.0
 10
17.981032
 20
23.977873
 30
0.0
 10
18.818114
 20
23.977873
 30
0.0
 10
18.818114
 20
17.998706
 30
0.0
 10
17.852907
 20
17.998706
 30
0.0
 10
16.725407
 20
22.363497
 30
0.0
 10
16.708324
 20
22.363497
 30
0.0
 10
16.708324
 20
17.998706
 30
0.0
 10
15.871240
 20
17.998706
 30
0.0
  0
SPLINE
  5
132
100
AcDbEntity
  8
0
 62
7
100
AcDbSpline
 70
8
 71
3
 72
8
 73
4
 74
0
 40
0
 40
0
 40
0
 40
0
 40
1
 40
1
 40
1
 40
1
 10
40.448671
 20
17.837954
 30
0.0
 10
39.987421
 20
17.837954
 30
0.0
 10
39.634365
 20
17.968926
 30
0.0
 10
39.389504
 20
18.230870
 30
0.0
  0
SPLINE
  5
133
100
AcDbEntity
  8
0
 62
7
100
AcDbSpline
 70
8
 71
3
 72
8
 73
4
 74
0
 40
0
 40
0
 40
0
 40
0
 40
1
 40
1
 40
1
 40
1
 10
39.389504
 20
18.230870
 30
0.0
 10
39.144643
 20
18.492815
 30
0.0
 10
39.022212
 20
18.862954
 30
0.0
 10
39.022212
 20
19.341287
 30
0.0
  0
LWPOLYLINE
  5
134
100
AcDbEntity
  8
0
 62
7
100
AcDbPolyline
 90
16
 70
1
 10
19.501157
 20
23.995630
 30
0.0
 10
20.842199
 20
23.995630
 30
0.0
 10
21.440115
 20
19.716254
 30
0.0
 10
21.457199
 20
19.716254
 30
0.0
 10
22.055115
 20
23.995630
 30
0.0
 10
23.396157
 20
23.995630
 30
0.0
 10
23.396157
 20
18.016463
 30
0.0
 10
22.507824
 20
18.016463
 30
0.0
 10
22.507824
 20
22.543546
 30
0.0
 10
22.490740
 20
22.543546
 30
0.0
 10
21.807407
 20
18.016463
 30
0.0
 10
21.021574
 20
18.016463
 30
0.0
 10
20.338240
 20
22.543546
 30
0.0
 10
20.321157
 20
22.543546
 30
0.0
 10
20.321157
 20
18.016463
 30
0.0
 10
19.501157
 20
18.016463
 30
0.0
  0
SPLINE
  5
135
100
AcDbEntity
  8
0
 62
7
100
AcDbSpline
 70
8
 71
3
 72
8
 73
4
 74
0
 40
0
 40
0
 40
0
 40
0
 40
1
 40
1
 40
1
 40
1
 10
39.022212
 20
22.484620
 30
0.0
 10
39.022212
 20
22.962954
 30
0.0
 10
39.144643
 20
23.333092
 30
0.0
 10
39.389504
 20
23.595037
 30
0.0
  0
SPLINE
  5
136
100
AcDbEntity
  8
0
 62
7
100
AcDbSpline
 70
8
 71
3
 72
8
 73
4
 74
0
 40
0
 40
0
 40
0
 40
0
 40
1
 40
1
 40
1
 40
1
 10
39.389504
 20
23.595037
 30
0.0
 10
39.634365
 20
23.856981
 30
0.0
 10
39.987421
 20
23.987954
 30
0.0
 10
40.448671
 20
23.987954
 30
0.0
  0
SPLINE
  5
137
100
AcDbEntity
  8
0
 62
7
100
AcDbSpline
 70
8
 71
3
 72
8
 73
4
 74
0
 40
0
 40
0
 40
0
 40
0
 40
1
 40
1
 40
1
 40
1
 10
40.448671
 20
23.987954
 30
0.0
 10
40.909921
 20
23.987954
 30
0.0
 10
41.262976
 20
23.856981
 30
0.0
 10
41.507838
 20
23.595037
 30
0.0
  0
SPLINE
  5
138
100
AcDbEntity
  8
0
 62
7
100
AcDbSpline
 70
8
 71
3
 72
8
 73
4
 74
0
 40
0
 40
0
 40
0
 40
0
 40
1
 40
1
 40
1
 40
1
 10
41.507838
 20
23.595037
 30
0.0
 10
41.752699
 20
23.333092
 30
0.0
 10
41.875129
 20
22.962954
 30
0.0
 10
41.875129
 20
22.484620
 30
0.0
  0
LWPOLYLINE
  5
139
100
AcDbEntity
  8
0
 62
7
100
AcDbPolyline
 90
2
 70
0
 10
39.022212
 20
19.341287
 30
0.0
 10
39.022212
 20
22.484620
 30
0.0
  0
SPLINE
  5
13a
100
AcDbEntity
  8
0
 62
7
100
AcDbSpline
 70
8
 71
3
 72
8
 73
4
 74
0
 40
0
 40
0
 40
0
 40
0
 40
1
 40
1
 40
1
 40
1
 10
41.875129
 20
19.341287
 30
0.0
 10
41.875129
 20
18.862954
 30
0.0
 10
41.752699
 20
18.492815
 30
0.0
 10
41.507838
 20
18.230870
 30
0.0
  0
SPLINE
  5
13b
100
AcDbEntity
  8
0
 62
7
100
AcDbSpline
 70
8
 71
3
 72
8
 73
4
 74
0
 40
0
 40
0
 40
0
 40
0
 40
1
 40
1
 40
1
 40
1
 10
41.507838
 20
18.230870
 30
0.0
 10
41.262976
 20
17.968926
 30
0.0
 10
40.909921
 20
17.837954
 30
0.0
 10
40.448671
 20
17.837954
 30
0.0
  0
LWPOLYLINE
  5
13c
100
AcDbEntity
  8
0
 62
7
100
AcDbPolyline
 90
2
 70
0
 10
41.875129
 20
22.484620
 30
0.0
 10
41.875129
 20
19.341287
 30
0.0
  0
SPLINE
  5
13d
100
AcDbEntity
  8
0
 62
7
100
AcDbSpline
 70
8
 71
3
 72
8
 73
4
 74
0
 40
0
 40
0
 40
0
 40
0
 40
1
 40
1
 40
1
 40
1
 10
40.448671
 20
18.692120
 30
0.0
 10
40.773254
 20
18.692120
 30
0.0
 10
40.935546
 20
18.888579
 30
0.0
 10
40.935546
 20
19.281495
 30
0.0
  0
LWPOLYLINE
  5
13e
100
AcDbEntity
  8
0
 62
7
100
AcDbPolyline
 90
1
 70
1
 10
40.448671
 20
17.837954
 30
0.0
  0
SPLINE
  5
13f
100
AcDbEntity
  8
0
 62
7
100
AcDbSpline
 70
8
 71
3
 72
8
 73
4
 74
0
 40
0
 40
0
 40
0
 40
0
 40
1
 40
1
 40
1
 40
1
 10
40.935546
 20
22.544412
 30
0.0
 10
40.935546
 20
22.937329
 30
0.0
 10
40.773254
 20
23.133787
 30
0.0
 10
40.448671
 20
23.133787
 30
0.0
  0
SPLINE
  5
140
100
AcDbEntity
  8
0
 62
7
100
AcDbSpline
 70
8
 71
3
 72
8
 73
4
 74
0
 40
0
 40
0
 40
0
 40
0
 40
1
 40
1
 40
1
 40
1
 10
40.448671
 20
23.133787
 30
0.0
 10
40.124087
 20
23.133787
 30
0.0
 10
39.961796
 20
22.937329
 30
0.0
 10
39.961796
 20
22.544412
 30
0.0
  0
LWPOLYLINE
  5
141
100
AcDbEntity
  8
0
 62
7
100
AcDbPolyline
 90
2
 70
0
 10
40.935546
 20
19.281495
 30
0.0
 10
40.935546
 20
22.544412
 30
0.0
  0
SPLINE
  5
142
100
AcDbEntity
  8
0
 62
7
100
AcDbSpline
 70
8
 71
3
 72
8
 73
4
 74
0
 40
0
 40
0
 40
0
 40
0
 40
1
 40
1
 40
1
 40
1
 10
39.961796
 20
19.281495
 30
0.0
 10
39.961796
 20
18.888579
 30
0.0
 10
40.124087
 20
18.692120
 30
0.0
 10
40.448671
 20
18.692120
 30
0.0
  0
LWPOLYLINE
  5
143
100
AcDbEntity
  8
0
 62
7
100
AcDbPolyline
 90
2
 70
0
 10
39.961796
 20
22.544412
 30
0.0
 10
39.961796
 20
19.281495
 30
0.0
  0
LWPOLYLINE
  5
144
100
AcDbEntity
  8
0
 62
7
100
AcDbPolyline
 90
1
 70
1
 10
40.448671
 20
18.692120
 30
0.0
  0
LWPOLYLINE
  5
145
100
AcDbEntity
  8
0
 62
7
100
AcDbPolyline
 90
8
 70
1
 10
6.785364
 20
17.966500
 30
0.0
 10
5.837239
 20
17.966500
 30
0.0
 10
5.222239
 20
22.604625
 30
0.0
 10
5.205155
 20
22.604625
 30
0.0
 10
4.590155
 20
17.966500
 30
0.0
 10
3.727447
 20
17.966500
 30
0.0
 10
4.632864
 20
23.945667
 30
0.0
 10
5.879947
 20
23.945667
 30
0.0
  0
LWPOLYLINE
  5
146
100
AcDbEntity
  8
0
 62
7
100
AcDbPolyline
 90
12
 70
1
 10
0.491986
 20
14.787803
 30
0.0
 10
0.491986
 20
17.350303
 30
0.0
 10
1.346153
 20
17.350303
 30
0.0
 10
1.346153
 20
15.727387
 30
0.0
 10
2.926361
 20
15.727387
 30
0.0
 10
2.926361
 20
17.017178
 30
0.0
 10
3.780528
 20
17.017178
 30
0.0
 10
3.780528
 20
15.727387
 30
0.0
 10
5.616986
 20
15.727387
 30
0.0
 10
5.616986
 20
17.350303
 30
0.0
 10
6.471152
 20
17.350303
 30
0.0
 10
6.471152
 20
14.787803
 30
0.0
  0
SPLINE
  5
147
100
AcDbEntity
  8
0
 62
7
100
AcDbSpline
 70
8
 71
3
 72
8
 73
4
 74
0
 40
0
 40
0
 40
0
 40
0
 40
1
 40
1
 40
1
 40
1
 10
43.866197
 20
17.847464
 30
0.0
 10
43.404947
 20
17.847464
 30
0.0
 10
43.051892
 20
17.978436
 30
0.0
 10
42.807031
 20
18.240380
 30
0.0
  0
SPLINE
  5
148
100
AcDbEntity
  8
0
 62
7
100
AcDbSpline
 70
8
 71
3
 72
8
 73
4
 74
0
 40
0
 40
0
 40
0
 40
0
 40
1
 40
1
 40
1
 40
1
 10
42.807031
 20
18.240380
 30
0.0
 10
42.562169
 20
18.502324
 30
0.0
 10
42.439739
 20
18.872463
 30
0.0
 10
42.439739
 20
19.350797
 30
0.0
  0
LWPOLYLINE
  5
149
100
AcDbEntity
  8
0
 62
7
100
AcDbPolyline
 90
16
 70
1
 10
24.009490
 20
23.992583
 30
0.0
 10
25.350532
 20
23.992583
 30
0.0
 10
25.948449
 20
19.713208
 30
0.0
 10
25.965532
 20
19.713208
 30
0.0
 10
26.563449
 20
23.992583
 30
0.0
 10
27.904490
 20
23.992583
 30
0.0
 10
27.904490
 20
18.013416
 30
0.0
 10
27.016157
 20
18.013416
 30
0.0
 10
27.016157
 20
22.540500
 30
0.0
 10
26.999074
 20
22.540500
 30
0.0
 10
26.315740
 20
18.013416
 30
0.0
 10
25.529907
 20
18.013416
 30
0.0
 10
24.846574
 20
22.540500
 30
0.0
 10
24.829490
 20
22.540500
 30
0.0
 10
24.829490
 20
18.013416
 30
0.0
 10
24.009490
 20
18.013416
 30
0.0
  0
SPLINE
  5
14a
100
AcDbEntity
  8
0
 62
7
100
AcDbSpline
 70
8
 71
3
 72
8
 73
4
 74
0
 40
0
 40
0
 40
0
 40
0
 40
1
 40
1
 40
1
 40
1
 10
42.439739
 20
22.494130
 30
0.0
 10
42.439739
 20
22.972463
 30
0.0
 10
42.562169
 20
23.342602
 30
0.0
 10
42.807031
 20
23.604546
 30
0.0
  0
SPLINE
  5
14b
100
AcDbEntity
  8
0
 62
7
100
AcDbSpline
 70
8
 71
3
 72
8
 73
4
 74
0
 40
0
 40
0
 40
0
 40
0
 40
1
 40
1
 40
1
 40
1
 10
42.807031
 20
23.604546
 30
0.0
 10
43.051892
 20
23.866491
 30
0.0
 10
43.404947
 20
23.997463
 30
0.0
 10
43.866197
 20
23.997463
 30
0.0
  0
SPLINE
  5
14c
100
AcDbEntity
  8
0
 62
7
100
AcDbSpline
 70
8
 71
3
 72
8
 73
4
 74
0
 40
0
 40
0
 40
0
 40
0
 40
1
 40
1
 40
1
 40
1
 10
43.866197
 20
23.997463
 30
0.0
 10
44.327447
 20
23.997463
 30
0.0
 10
44.680503
 20
23.866491
 30
0.0
 10
44.925364
 20
23.604546
 30
0.0
  0
SPLINE
  5
14d
100
AcDbEntity
  8
0
 62
7
100
AcDbSpline
 70
8
 71
3
 72
8
 73
4
 74
0
 40
0
 40
0
 40
0
 40
0
 40
1
 40
1
 40
1
 40
1
 10
44.925364
 20
23.604546
 30
0.0
 10
45.170225
 20
23.342602
 30
0.0
 10
45.292656
 20
22.972463
 30
0.0
 10
45.292656
 20
22.494130
 30
0.0
  0
LWPOLYLINE
  5
14e
100
AcDbEntity
  8
0
 62
7
100
AcDbPolyline
 90
2
 70
0
 10
42.439739
 20
19.350797
 30
0.0
 10
42.439739
 20
22.494130
 30
0.0
  0
SPLINE
  5
14f
100
AcDbEntity
  8
0
 62
7
100
AcDbSpline
 70
8
 71
3
 72
8
 73
4
 74
0
 40
0
 40
0
 40
0
 40
0
 40
1
 40
1
 40
1
 40
1
 10
45.292656
 20
19.350797
 30
0.0
 10
45.292656
 20
18.872463
 30
0.0
 10
45.170225
 20
18.502324
 30
0.0
 10
44.925364
 20
18.240380
 30
0.0
  0
SPLINE
  5
150
100
AcDbEntity
  8
0
 62
7
100
AcDbSpline
 70
8
 71
3
 72
8
 73
4
 74
0
 40
0
 40
0
 40
0
 40
0
 40
1
 40
1
 40
1
 40
1
 10
44.925364
 20
18.240380
 30
0.0
 10
44.680503
 20
17.978436
 30
0.0
 10
44.327447
 20
17.847464
 30
0.0
 10
43.866197
 20
17.847464
 30
0.0
  0
LWPOLYLINE
  5
151
100
AcDbEntity
  8
0
 62
7
100
AcDbPolyline
 90
2
 70
0
 10
45.292656
 20
22.494130
 30
0.0
 10
45.292656
 20
19.350797
 30
0.0
  0
SPLINE
  5
152
100
AcDbEntity
  8
0
 62
7
100
AcDbSpline
 70
8
 71
3
 72
8
 73
4
 74
0
 40
0
 40
0
 40
0
 40
0
 40
1
 40
1
 40
1
 40
1
 10
43.866197
 20
18.701630
 30
0.0
 10
44.190781
 20
18.701630
 30
0.0
 10
44.353072
 20
18.898088
 30
0.0
 10
44.353072
 20
19.291005
 30
0.0
  0
LWPOLYLINE
  5
153
100
AcDbEntity
  8
0
 62
7
100
AcDbPolyline
 90
1
 70
1
 10
43.866197
 20
17.847464
 30
0.0
  0
SPLINE
  5
154
100
AcDbEntity
  8
0
 62
7
100
AcDbSpline
 70
8
 71
3
 72
8
 73
4
 74
0
 40
0
 40
0
 40
0
 40
0
 40
1
 40
1
 40
1
 40
1
 10
44.353072
 20
22.553922
 30
0.0
 10
44.353072
 20
22.946838
 30
0.0
 10
44.190781
 20
23.143296
 30
0.0
 10
43.866197
 20
23.143296
 30
0.0
  0
SPLINE
  5
155
100
AcDbEntity
  8
0
 62
7
100
AcDbSpline
 70
8
 71
3
 72
8
 73
4
 74
0
 40
0
 40
0
 40
0
 40
0
 40
1
 40
1
 40
1
 40
1
 10
43.866197
 20
23.143296
 30
0.0
 10
43.541614
 20
23.143296
 30
0.0
 10
43.379322
 20
22.946838
 30
0.0
 10
43.379322
 20
22.553922
 30
0.0
  0
LWPOLYLINE
  5
156
100
AcDbEntity
  8
0
 62
7
100
AcDbPolyline
 90
2
 70
0
 10
44.353072
 20
19.291005
 30
0.0
 10
44.353072
 20
22.553922
 30
0.0
  0
SPLINE
  5
157
100
AcDbEntity
  8
0
 62
7
100
AcDbSpline
 70
8
 71
3
 72
8
 73
4
 74
0
 40
0
 40
0
 40
0
 40
0
 40
1
 40
1
 40
1
 40
1
 10
43.379322
 20
19.291005
 30
0.0
 10
43.379322
 20
18.898088
 30
0.0
 10
43.541614
 20
18.701630
 30
0.0
 10
43.866197
 20
18.701630
 30
0.0
  0
LWPOLYLINE
  5
158
100
AcDbEntity
  8
0
 62
7
100
AcDbPolyline
 90
2
 70
0
 10
43.379322
 20
22.553922
 30
0.0
 10
43.379322
 20
19.291005
 30
0.0
  0
SPLINE
  5
159
100
AcDbEntity
  8
0
 62
7
100
AcDbSpline
 70
8
 71
3
 72
8
 73
4
 74
0
 40
0
 40
0
 40
0
 40
0
 40
1
 40
1
 40
1
 40
1
 10
26.347079
 20
16.025680
 30
0.0
 10
26.347079
 20
16.481236
 30
0.0
 10
26.475204
 20
16.828597
 30
0.0
 10
26.731454
 20
17.067763
 30
0.0
  0
SPLINE
  5
15a
100
AcDbEntity
  8
0
 62
7
100
AcDbSpline
 70
8
 71
3
 72
8
 73
4
 74
0
 40
0
 40
0
 40
0
 40
0
 40
1
 40
1
 40
1
 40
1
 10
26.731454
 20
17.067763
 30
0.0
 10
26.993399
 20
17.306930
 30
0.0
 10
27.366385
 20
17.426513
 30
0.0
 10
27.850413
 20
17.426513
 30
0.0
  0
LWPOLYLINE
  5
15b
100
AcDbEntity
  8
0
 62
7
100
AcDbPolyline
 90
1
 70
1
 10
43.866197
 20
18.701630
 30
0.0
  0
SPLINE
  5
15c
100
AcDbEntity
  8
0
 62
7
100
AcDbSpline
 70
8
 71
3
 72
8
 73
4
 74
0
 40
0
 40
0
 40
0
 40
0
 40
1
 40
1
 40
1
 40
1
 10
27.782079
 20
16.486930
 30
0.0
 10
27.577079
 20
16.486930
 30
0.0
 10
27.429024
 20
16.447069
 30
0.0
 10
27.337913
 20
16.367347
 30
0.0
  0
SPLINE
  5
15d
100
AcDbEntity
  8
0
 62
7
100
AcDbSpline
 70
8
 71
3
 72
8
 73
4
 74
0
 40
0
 40
0
 40
0
 40
0
 40
1
 40
1
 40
1
 40
1
 10
27.337913
 20
16.367347
 30
0.0
 10
27.246801
 20
16.281930
 30
0.0
 10
27.201246
 20
16.162347
 30
0.0
 10
27.201246
 20
16.008597
 30
0.0
  0
SPLINE
  5
15e
100
AcDbEntity
  8
0
 62
7
100
AcDbSpline
 70
8
 71
3
 72
8
 73
4
 74
0
 40
0
 40
0
 40
0
 40
0
 40
1
 40
1
 40
1
 40
1
 10
27.201246
 20
16.008597
 30
0.0
 10
27.201246
 20
15.854847
 30
0.0
 10
27.246801
 20
15.738111
 30
0.0
 10
27.337913
 20
15.658388
 30
0.0
  0
SPLINE
  5
15f
100
AcDbEntity
  8
0
 62
7
100
AcDbSpline
 70
8
 71
3
 72
8
 73
4
 74
0
 40
0
 40
0
 40
0
 40
0
 40
1
 40
1
 40
1
 40
1
 10
27.337913
 20
15.658388
 30
0.0
 10
27.429024
 20
15.572972
 30
0.0
 10
27.577079
 20
15.530263
 30
0.0
 10
27.782079
 20
15.530263
 30
0.0
  0
LWPOLYLINE
  5
160
100
AcDbEntity
  8
0
 62
7
100
AcDbPolyline
 90
4
 70
0
 10
27.850413
 20
17.426513
 30
0.0
 10
32.411662
 20
17.426513
 30
0.0
 10
32.411662
 20
16.486930
 30
0.0
 10
27.782079
 20
16.486930
 30
0.0
  0
SPLINE
  5
161
100
AcDbEntity
  8
0
 62
7
100
AcDbSpline
 70
8
 71
3
 72
8
 73
4
 74
0
 40
0
 40
0
 40
0
 40
0
 40
1
 40
1
 40
1
 40
1
 10
27.850413
 20
14.624847
 30
0.0
 10
27.366385
 20
14.624847
 30
0.0
 10
26.993399
 20
14.744430
 30
0.0
 10
26.731454
 20
14.983597
 30
0.0
  0
SPLINE
  5
162
100
AcDbEntity
  8
0
 62
7
100
AcDbSpline
 70
8
 71
3
 72
8
 73
4
 74
0
 40
0
 40
0
 40
0
 40
0
 40
1
 40
1
 40
1
 40
1
 10
26.731454
 20
14.983597
 30
0.0
 10
26.475204
 20
15.222763
 30
0.0
 10
26.347079
 20
15.570125
 30
0.0
 10
26.347079
 20
16.025680
 30
0.0
  0
LWPOLYLINE
  5
163
100
AcDbEntity
  8
0
 62
7
100
AcDbPolyline
 90
4
 70
0
 10
27.782079
 20
15.530263
 30
0.0
 10
32.411662
 20
15.530263
 30
0.0
 10
32.411662
 20
14.624847
 30
0.0
 10
27.850413
 20
14.624847
 30
0.0
  0
LWPOLYLINE
  5
164
100
AcDbEntity
  8
0
 62
7
100
AcDbPolyline
 90
1
 70
1
 10
26.347079
 20
16.025680
 30
0.0
  0
LWPOLYLINE
  5
165
100
AcDbEntity
  8
0
 62
7
100
AcDbPolyline
 90
12
 70
1
 10
28.516478
 20
23.980919
 30
0.0
 10
29.695228
 20
23.980919
 30
0.0
 10
30.609186
 20
20.401961
 30
0.0
 10
30.626269
 20
20.401961
 30
0.0
 10
30.626269
 20
23.980919
 30
0.0
 10
31.463353
 20
23.980919
 30
0.0
 10
31.463353
 20
18.001753
 30
0.0
 10
30.498144
 20
18.001753
 30
0.0
 10
29.370644
 20
22.366544
 30
0.0
 10
29.353561
 20
22.366544
 30
0.0
 10
29.353561
 20
18.001753
 30
0.0
 10
28.516478
 20
18.001753
 30
0.0
  0
LWPOLYLINE
  5
166
100
AcDbEntity
  8
0
 62
7
100
AcDbPolyline
 90
8
 70
1
 10
13.433516
 20
23.123706
 30
0.0
 10
12.451224
 20
23.123706
 30
0.0
 10
12.451224
 20
23.977873
 30
0.0
 10
15.355390
 20
23.977873
 30
0.0
 10
15.355390
 20
23.123706
 30
0.0
 10
14.373099
 20
23.123706
 30
0.0
 10
14.373099
 20
17.998706
 30
0.0
 10
13.433516
 20
17.998706
 30
0.0
  0
LWPOLYLINE
  5
167
100
AcDbEntity
  8
0
 62
7
100
AcDbPolyline
 90
9
 70
1
 10
10.460931
 20
23.989536
 30
0.0
 10
11.733640
 20
23.989536
 30
0.0
 10
12.707390
 20
18.010370
 30
0.0
 10
11.767806
 20
18.010370
 30
0.0
 10
11.596973
 20
19.197661
 30
0.0
 10
11.596973
 20
19.180578
 30
0.0
 10
10.529265
 20
19.180578
 30
0.0
 10
10.358431
 20
18.010370
 30
0.0
 10
9.487181
 20
18.010370
 30
0.0
  0
LWPOLYLINE
  5
168
100
AcDbEntity
  8
0
 62
7
100
AcDbPolyline
 90
4
 70
1
 10
11.485931
 20
19.992036
 30
0.0
 10
11.067390
 20
22.947453
 30
0.0
 10
11.050306
 20
22.947453
 30
0.0
 10
10.640306
 20
19.992036
 30
0.0
  0
LWPOLYLINE
  5
169
100
AcDbEntity
  8
0
 62
7
100
AcDbPolyline
 90
4
 70
1
 10
46.143467
 20
23.999341
 30
0.0
 10
47.083050
 20
23.999341
 30
0.0
 10
47.083050
 20
18.020174
 30
0.0
 10
46.143467
 20
18.020174
 30
0.0
  0
SPLINE
  5
16a
100
AcDbEntity
  8
0
 62
7
100
AcDbSpline
 70
8
 71
3
 72
8
 73
4
 74
0
 40
0
 40
0
 40
0
 40
0
 40
1
 40
1
 40
1
 40
1
 10
19.344018
 20
16.108286
 30
0.0
 10
19.344018
 20
15.652731
 30
0.0
 10
19.215893
 20
15.308217
 30
0.0
 10
18.959643
 20
15.074745
 30
0.0
  0
SPLINE
  5
16b
100
AcDbEntity
  8
0
 62
7
100
AcDbSpline
 70
8
 71
3
 72
8
 73
4
 74
0
 40
0
 40
0
 40
0
 40
0
 40
1
 40
1
 40
1
 40
1
 10
18.959643
 20
15.074745
 30
0.0
 10
18.697699
 20
14.841273
 30
0.0
 10
18.324713
 20
14.724536
 30
0.0
 10
17.840685
 20
14.724536
 30
0.0
  0
LWPOLYLINE
  5
16c
100
AcDbEntity
  8
0
 62
7
100
AcDbPolyline
 90
12
 70
1
 10
32.045758
 20
23.998676
 30
0.0
 10
33.224508
 20
23.998676
 30
0.0
 10
34.138467
 20
20.419718
 30
0.0
 10
34.155550
 20
20.419718
 30
0.0
 10
34.155550
 20
23.998676
 30
0.0
 10
34.992633
 20
23.998676
 30
0.0
 10
34.992633
 20
18.019509
 30
0.0
 10
34.027425
 20
18.019509
 30
0.0
 10
32.899925
 20
22.384301
 30
0.0
 10
32.882842
 20
22.384301
 30
0.0
 10
32.882842
 20
18.019509
 30
0.0
 10
32.045758
 20
18.019509
 30
0.0
  0
SPLINE
  5
16d
100
AcDbEntity
  8
0
 62
7
100
AcDbSpline
 70
8
 71
3
 72
8
 73
4
 74
0
 40
0
 40
0
 40
0
 40
0
 40
1
 40
1
 40
1
 40
1
 10
17.909018
 20
15.612870
 30
0.0
 10
18.296240
 20
15.612870
 30
0.0
 10
18.489851
 20
15.775161
 30
0.0
 10
18.489851
 20
16.099745
 30
0.0
  0
SPLINE
  5
16e
100
AcDbEntity
  8
0
 62
7
100
AcDbSpline
 70
8
 71
3
 72
8
 73
4
 74
0
 40
0
 40
0
 40
0
 40
0
 40
1
 40
1
 40
1
 40
1
 10
18.489851
 20
16.099745
 30
0.0
 10
18.489851
 20
16.259189
 30
0.0
 10
18.444296
 20
16.378773
 30
0.0
 10
18.353185
 20
16.458495
 30
0.0
  0
SPLINE
  5
16f
100
AcDbEntity
  8
0
 62
7
100
AcDbSpline
 70
8
 71
3
 72
8
 73
4
 74
0
 40
0
 40
0
 40
0
 40
0
 40
1
 40
1
 40
1
 40
1
 10
18.353185
 20
16.458495
 30
0.0
 10
18.256379
 20
16.543911
 30
0.0
 10
18.102629
 20
16.586620
 30
0.0
 10
17.891935
 20
16.586620
 30
0.0
  0
SPLINE
  5
170
100
AcDbEntity
  8
0
 62
7
100
AcDbSpline
 70
8
 71
3
 72
8
 73
4
 74
0
 40
0
 40
0
 40
0
 40
0
 40
1
 40
1
 40
1
 40
1
 10
17.891935
 20
16.586620
 30
0.0
 10
17.641379
 20
16.586620
 30
0.0
 10
17.422143
 20
16.529675
 30
0.0
 10
17.234226
 20
16.415786
 30
0.0
  0
SPLINE
  5
171
100
AcDbEntity
  8
0
 62
7
100
AcDbSpline
 70
8
 71
3
 72
8
 73
4
 74
0
 40
0
 40
0
 40
0
 40
0
 40
1
 40
1
 40
1
 40
1
 10
17.234226
 20
16.415786
 30
0.0
 10
17.040615
 20
16.301898
 30
0.0
 10
16.809990
 20
16.091203
 30
0.0
 10
16.542351
 20
15.783703
 30
0.0
  0
SPLINE
  5
172
100
AcDbEntity
  8
0
 62
7
100
AcDbSpline
 70
8
 71
3
 72
8
 73
4
 74
0
 40
0
 40
0
 40
0
 40
0
 40
1
 40
1
 40
1
 40
1
 10
16.542351
 20
15.783703
 30
0.0
 10
16.200685
 20
15.396481
 30
0.0
 10
15.893185
 20
15.125995
 30
0.0
 10
15.619851
 20
14.972245
 30
0.0
  0
SPLINE
  5
173
100
AcDbEntity
  8
0
 62
7
100
AcDbSpline
 70
8
 71
3
 72
8
 73
4
 74
0
 40
0
 40
0
 40
0
 40
0
 40
1
 40
1
 40
1
 40
1
 10
15.619851
 20
14.972245
 30
0.0
 10
15.340824
 20
14.818495
 30
0.0
 10
15.027629
 20
14.741620
 30
0.0
 10
14.680268
 20
14.741620
 30
0.0
  0
SPLINE
  5
174
100
AcDbEntity
  8
0
 62
7
100
AcDbSpline
 70
8
 71
3
 72
8
 73
4
 74
0
 40
0
 40
0
 40
0
 40
0
 40
1
 40
1
 40
1
 40
1
 10
14.680268
 20
14.741620
 30
0.0
 10
14.207629
 20
14.741620
 30
0.0
 10
13.843185
 20
14.861203
 30
0.0
 10
13.586935
 20
15.100370
 30
0.0
  0
SPLINE
  5
175
100
AcDbEntity
  8
0
 62
7
100
AcDbSpline
 70
8
 71
3
 72
8
 73
4
 74
0
 40
0
 40
0
 40
0
 40
0
 40
1
 40
1
 40
1
 40
1
 10
13.586935
 20
15.100370
 30
0.0
 10
13.324991
 20
15.339536
 30
0.0
 10
13.194018
 20
15.686898
 30
0.0
 10
13.194018
 20
16.142453
 30
0.0
  0
SPLINE
  5
176
100
AcDbEntity
  8
0
 62
7
100
AcDbSpline
 70
8
 71
3
 72
8
 73
4
 74
0
 40
0
 40
0
 40
0
 40
0
 40
1
 40
1
 40
1
 40
1
 10
13.194018
 20
16.142453
 30
0.0
 10
13.194018
 20
16.592314
 30
0.0
 10
13.324991
 20
16.931134
 30
0.0
 10
13.586935
 20
17.158911
 30
0.0
  0
SPLINE
  5
177
100
AcDbEntity
  8
0
 62
7
100
AcDbSpline
 70
8
 71
3
 72
8
 73
4
 74
0
 40
0
 40
0
 40
0
 40
0
 40
1
 40
1
 40
1
 40
1
 10
13.586935
 20
17.158911
 30
0.0
 10
13.843185
 20
17.392384
 30
0.0
 10
14.213324
 20
17.509120
 30
0.0
 10
14.697351
 20
17.509120
 30
0.0
  0
LWPOLYLINE
  5
178
100
AcDbEntity
  8
0
 62
7
100
AcDbPolyline
 90
4
 70
0
 10
17.840685
 20
14.724536
 30
0.0
 10
17.499018
 20
14.724536
 30
0.0
 10
17.499018
 20
15.612870
 30
0.0
 10
17.909018
 20
15.612870
 30
0.0
  0
SPLINE
  5
179
100
AcDbEntity
  8
0
 62
7
100
AcDbSpline
 70
8
 71
3
 72
8
 73
4
 74
0
 40
0
 40
0
 40
0
 40
0
 40
1
 40
1
 40
1
 40
1
 10
14.637560
 20
16.620786
 30
0.0
 10
14.432560
 20
16.620786
 30
0.0
 10
14.284504
 20
16.580925
 30
0.0
 10
14.193393
 20
16.501203
 30
0.0
  0
SPLINE
  5
17a
100
AcDbEntity
  8
0
 62
7
100
AcDbSpline
 70
8
 71
3
 72
8
 73
4
 74
0
 40
0
 40
0
 40
0
 40
0
 40
1
 40
1
 40
1
 40
1
 10
14.193393
 20
16.501203
 30
0.0
 10
14.096587
 20
16.421481
 30
0.0
 10
14.048185
 20
16.304745
 30
0.0
 10
14.048185
 20
16.150995
 30
0.0
  0
SPLINE
  5
17b
100
AcDbEntity
  8
0
 62
7
100
AcDbSpline
 70
8
 71
3
 72
8
 73
4
 74
0
 40
0
 40
0
 40
0
 40
0
 40
1
 40
1
 40
1
 40
1
 10
14.048185
 20
16.150995
 30
0.0
 10
14.048185
 20
15.837800
 30
0.0
 10
14.238949
 20
15.681203
 30
0.0
 10
14.620476
 20
15.681203
 30
0.0
  0
SPLINE
  5
17c
100
AcDbEntity
  8
0
 62
7
100
AcDbSpline
 70
8
 71
3
 72
8
 73
4
 74
0
 40
0
 40
0
 40
0
 40
0
 40
1
 40
1
 40
1
 40
1
 10
14.620476
 20
15.681203
 30
0.0
 10
14.836865
 20
15.681203
 30
0.0
 10
15.039018
 20
15.738148
 30
0.0
 10
15.226935
 20
15.852036
 30
0.0
  0
SPLINE
  5
17d
100
AcDbEntity
  8
0
 62
7
100
AcDbSpline
 70
8
 71
3
 72
8
 73
4
 74
0
 40
0
 40
0
 40
0
 40
0
 40
1
 40
1
 40
1
 40
1
 10
15.226935
 20
15.852036
 30
0.0
 10
15.414851
 20
15.971620
 30
0.0
 10
15.642629
 20
16.185161
 30
0.0
 10
15.910268
 20
16.492661
 30
0.0
  0
SPLINE
  5
17e
100
AcDbEntity
  8
0
 62
7
100
AcDbSpline
 70
8
 71
3
 72
8
 73
4
 74
0
 40
0
 40
0
 40
0
 40
0
 40
1
 40
1
 40
1
 40
1
 10
15.910268
 20
16.492661
 30
0.0
 10
16.251935
 20
16.885578
 30
0.0
 10
16.562282
 20
17.156064
 30
0.0
 10
16.841310
 20
17.304120
 30
0.0
  0
SPLINE
  5
17f
100
AcDbEntity
  8
0
 62
7
100
AcDbSpline
 70
8
 71
3
 72
8
 73
4
 74
0
 40
0
 40
0
 40
0
 40
0
 40
1
 40
1
 40
1
 40
1
 10
16.841310
 20
17.304120
 30
0.0
 10
17.120337
 20
17.452175
 30
0.0
 10
17.447768
 20
17.526203
 30
0.0
 10
17.823601
 20
17.526203
 30
0.0
  0
SPLINE
  5
180
100
AcDbEntity
  8
0
 62
7
100
AcDbSpline
 70
8
 71
3
 72
8
 73
4
 74
0
 40
0
 40
0
 40
0
 40
0
 40
1
 40
1
 40
1
 40
1
 10
17.823601
 20
17.526203
 30
0.0
 10
18.313324
 20
17.526203
 30
0.0
 10
18.689157
 20
17.403773
 30
0.0
 10
18.951101
 20
17.158911
 30
0.0
  0
SPLINE
  5
181
100
AcDbEntity
  8
0
 62
7
100
AcDbSpline
 70
8
 71
3
 72
8
 73
4
 74
0
 40
0
 40
0
 40
0
 40
0
 40
1
 40
1
 40
1
 40
1
 10
18.951101
 20
17.158911
 30
0.0
 10
19.213046
 20
16.919745
 30
0.0
 10
19.344018
 20
16.569536
 30
0.0
 10
19.344018
 20
16.108286
 30
0.0
  0
LWPOLYLINE
  5
182
100
AcDbEntity
  8
0
 62
7
100
AcDbPolyline
 90
4
 70
0
 10
14.697351
 20
17.509120
 30
0.0
 10
14.945060
 20
17.509120
 30
0.0
 10
14.945060
 20
16.620786
 30
0.0
 10
14.637560
 20
16.620786
 30
0.0
  0
LWPOLYLINE
  5
183
100
AcDbEntity
  8
0
 62
7
100
AcDbPolyline
 90
1
 70
1
 10
19.344018
 20
16.108286
 30
0.0
  0
ENDSEC
  0
SECTION
  2
OBJECTS
  0
DICTIONARY
  5
C
330
0
100
AcDbDictionary
  3
ACAD_GROUP
350
D
  3
ACAD_MLINESTYLE
350
17
  0
DICTIONARY
  5
D
330
C
100
AcDbDictionary
  0
DICTIONARY
  5
1A
330
C
100
AcDbDictionary
  0
DICTIONARY
  5
17
330
C
100
AcDbDictionary
  3
STANDARD
350
18
  0
DICTIONARY
  5
19
330
C
100
AcDbDictionary
  0
ENDSEC
  0
EOF
